<svg width="15" height="26" viewBox="0 0 15 26" xmlns="http://www.w3.org/2000/svg">
<path d="M0.403225 13C0.403225 13.3599 0.532833 13.6769 0.80645 13.9504L12.2263 25.1111C12.4712 25.3704 12.788 25.5 13.1624 25.5C13.9113 25.5 14.4872 24.9383 14.4872 24.1894C14.4872 23.8151 14.3288 23.4982 14.0984 23.2534L3.61462 13L14.0984 2.74653C14.3288 2.50173 14.4872 2.17051 14.4872 1.81049C14.4872 1.06163 13.9113 0.5 13.1624 0.5C12.788 0.5 12.4712 0.629608 12.2263 0.874424L0.80645 12.0495C0.532833 12.3087 0.403225 12.64 0.403225 13Z" fill="currentColor"/>
</svg>
