<svg width="27" height="27" viewBox="0 0 27 27" xmlns="http://www.w3.org/2000/svg">
<path d="M25.5 13.5C25.5 20.1274 20.1274 25.5 13.5 25.5C6.87258 25.5 1.5 20.1274 1.5 13.5C1.5 6.87258 6.87258 1.5 13.5 1.5C20.1274 1.5 25.5 6.87258 25.5 13.5Z" fill="#0B84FE"/>
<path d="M13.5 26C20.3383 26 26 20.3261 26 13.5C26 6.66177 20.3261 1 13.4878 1C6.66177 1 1 6.66177 1 13.5C1 20.3261 6.67403 26 13.5 26ZM13.5 23.9168C7.71571 23.9168 3.0956 19.2844 3.0956 13.5C3.0956 7.71571 7.70345 3.08334 13.4878 3.08334C19.2721 3.08334 23.9168 7.71571 23.9168 13.5C23.9168 19.2844 19.2844 23.9168 13.5 23.9168ZM12.152 19.3211C12.5564 19.3211 12.8995 19.125 13.1447 18.7452L18.7452 9.93384C18.88 9.68874 19.0393 9.41913 19.0393 9.14953C19.0393 8.59805 18.549 8.24266 18.0344 8.24266C17.728 8.24266 17.4216 8.43874 17.1888 8.79413L12.103 16.9559L9.68874 13.8309C9.39462 13.4387 9.12502 13.3407 8.78188 13.3407C8.25492 13.3407 7.83825 13.7696 7.83825 14.3089C7.83825 14.5785 7.94854 14.8358 8.12011 15.0686L11.1103 18.7452C11.4167 19.1496 11.7475 19.3211 12.152 19.3211Z" fill="white"/>
</svg>
